<svg version="1.1" id="Layer_1" xmlns="http://www.w3.org/2000/svg" xmlns:xlink="http://www.w3.org/1999/xlink" x="0px" y="0px"
	 width="100%" viewBox="0 0 192 192" enable-background="new 0 0 192 192" xml:space="preserve">
<path fill="#FEFDFD" opacity="1.000000" stroke="none" 
	d="
M126.679123,29.278481 
	C142.811371,42.509048 148.407745,59.444382 143.685013,78.932365 
	C138.930359,98.552055 125.547234,110.775871 105.774513,114.710945 
	C79.382568,119.963364 53.189774,101.605721 49.307274,74.960655 
	C45.079681,45.947262 64.728386,24.097406 87.992195,19.888498 
	C102.205605,17.316994 114.921730,20.462893 126.679123,29.278481 
M115.054115,55.610466 
	C108.259171,46.625523 98.523727,43.456684 89.151680,47.179356 
	C80.335602,50.681190 74.669540,59.781734 75.593300,68.956146 
	C76.494347,77.904999 82.298615,85.355270 90.519737,87.743523 
	C99.574371,90.373924 107.314972,87.989655 113.515450,80.951881 
	C119.357742,74.320679 119.994987,65.137581 115.054115,55.610466 
z"/>
<path fill="#1AD1A5" opacity="1.000000" stroke="none" 
	d="
M92.000000,175.000076 
	C84.835670,174.999954 78.171272,175.017288 71.507011,174.995422 
	C62.503296,174.965881 52.570728,168.229431 50.089649,159.663589 
	C44.871078,141.646652 55.237274,126.982368 73.225159,126.151878 
	C89.019287,125.422684 104.879303,125.742989 120.699631,126.086861 
	C131.870331,126.329681 140.373825,132.537155 143.678864,141.689163 
	C147.155594,151.316605 145.870132,161.999084 137.079224,169.044144 
	C133.149155,172.193710 127.515411,174.296844 122.466743,174.742126 
	C112.547409,175.617035 102.496483,174.999893 92.000000,175.000076 
z"/>
<path fill="#FF9A06" opacity="1.000000" stroke="none" 
	d="
M115.256226,55.922203 
	C119.994987,65.137581 119.357742,74.320679 113.515450,80.951881 
	C107.314972,87.989655 99.574371,90.373924 90.519737,87.743523 
	C82.298615,85.355270 76.494347,77.904999 75.593300,68.956146 
	C74.669540,59.781734 80.335602,50.681190 89.151680,47.179356 
	C98.523727,43.456684 108.259171,46.625523 115.256226,55.922203 
z"/>
</svg>